<svg xmlns="http://www.w3.org/2000/svg" viewBox="0 0 400 400">
  <!-- Escritorio -->
  <rect x="50" y="200" width="300" height="80" fill="#8B4513"/>
  
  <!-- Monitor -->
  <rect x="100" y="120" width="120" height="80" fill="#808080"/>
  <rect x="105" y="125" width="110" height="70" fill="#000080"/>
  
  <!-- Teclado -->
  <rect x="100" y="210" width="100" height="20" fill="#696969"/>
  
  <!-- Mouse -->
  <rect x="210" y="210" width="20" height="30" fill="#696969"/>
  
  <!-- Persona -->
  <!-- Cabeza -->
  <circle cx="280" cy="150" r="20" fill="#FFE4B5"/>
  
  <!-- Cuerpo -->
  <rect x="270" y="170" width="20" height="40" fill="#4169E1"/>
  
  <!-- Brazos -->
  <line x1="270" y1="180" x2="250" y2="200" stroke="#4169E1" stroke-width="5"/>
  <line x1="290" y1="180" x2="310" y2="200" stroke="#4169E1" stroke-width="5"/>
  
  <!-- Herramientas -->
  <rect x="340" y="150" width="30" height="100" fill="#A9A9A9"/>
  <circle cx="355" cy="140" r="10" fill="#FF0000"/>
  
  <!-- Cables -->
  <path d="M 150 200 C 140 220, 160 240, 150 260" stroke="black" fill="none"/>
  <path d="M 170 200 C 160 220, 180 240, 170 260" stroke="black" fill="none"/>
  
  <!-- Texto identificativo -->
  <text x="100" y="50" font-family="Arial" font-size="16" fill="black">Auxiliar de Sistemas</text>
</svg>
